# xmcd CD database file generated by Grip 2.7
# 
# Track frame offsets:
#       150
#       15052
#       33492
#       48607
#       70547
#       85952
#       110025
#       122322
#       150522
#       163690
#       181987
#       199275
# 
# Disc length: 2853 seconds
# 
# Revision: 3
# Processed by: cddbd v1.4b41PL1 Copyright (c) Steve Scherf et al.
# Submitted via: Grip 2.7
# 
DISCID=900b230c
DTITLE=Sonny Terry and Brownie McGhee - Blowin' The Fuses
DYEAR=1900
DGENRE=
TTITLE0=Walk On
TTITLE1=Stranger Blues
TTITLE2=Ain't Gonna Study War No More
TTITLE3=Blues For The Lowlands
TTITLE4=Trouble In Mind
TTITLE5=Drinkin' In The Blues
TTITLE6=Po' Boy
TTITLE7=Blowin' The Fuses
TTITLE8=Chain Gang Special
TTITLE9=Red River
TTITLE10=Rock Me Momma
TTITLE11=Pick A Bale Of Cotton
EXTD=
EXTT0=
EXTT1=
EXTT2=
EXTT3=
EXTT4=
EXTT5=
EXTT6=
EXTT7=
EXTT8=
EXTT9=
EXTT10=
EXTT11=
PLAYORDER=
